<?xml version="1.0" encoding="UTF-8"?>
<svg width="1581px" height="176px" viewBox="0 0 1581 176" version="1.1" xmlns="http://www.w3.org/2000/svg" xmlns:xlink="http://www.w3.org/1999/xlink">
    <title>Group 2</title>
    <g id="Page-1" stroke="none" stroke-width="1" fill="none" fill-rule="evenodd">
        <g id="Group-2">
            <g id="Group" transform="translate(342.000000, 0.000000)" fill="#757575" font-family="Roboto-Regular, Roboto" font-size="150" font-weight="normal">
                <text id="Flutter-Helper-Utils">
                    <tspan x="0" y="139">Flutter Helper Utils</tspan>
                </text>
            </g>
            <g id="Google-flutter-logo-(1)" fill-rule="nonzero">
                <path d="M74.7785433,0.0512753878 L121.153846,0 L43.348728,78.0240485 L23.0712447,98.2550376 L0,75.0785623 L74.7785433,0.0512753878 Z M74.3469867,69.7174356 C74.9488946,68.9198185 76.0561781,69.3129298 76.8965778,69.210379 L121.114098,69.2217735 L80.8146578,109.615385 L57.6241672,86.4901847 L74.3469867,69.7174356 Z" id="Shape" fill="#44D1FD"></path>
                <polygon id="Path" fill="#1FBCFD" points="34.6153846 109.595537 57.6075906 86.5384615 80.6732181 109.555842 80.7692308 109.657915 57.6132385 132.692308 34.6153846 109.595537"></polygon>
                <path d="M57.6923077,132.722377 L80.9590794,109.615385 L121.153846,149.947382 C106.01342,149.981513 90.8786689,149.936005 75.7439176,149.970136 C74.8813446,150.163548 74.3479113,149.372836 73.7974536,148.883618 L57.6923077,132.722377 L57.6923077,132.722377 Z" id="Path" fill="#08589C"></path>
            </g>
            <g id="icons8-settings-480" transform="translate(144.000000, 0.000000)" fill-rule="nonzero">
                <path d="M129.528987,82.8947368 C129.888346,80.3827751 130.247705,77.8708134 130.247705,75 C130.247705,72.1291866 129.888346,69.6172249 129.528987,67.1052632 L145.700146,55.6220096 C147.137582,54.5454545 147.8563,52.3923445 146.778223,50.5980861 L130.966423,24.0430622 C129.888346,22.2488038 128.09155,21.5311005 126.294755,22.6076555 L108.326801,30.861244 C104.014492,27.6315789 99.7021825,25.1196172 94.6711553,22.9665072 L92.8743599,3.22966507 C92.5150008,1.4354067 91.0775644,0 89.280769,0 L58.3758874,0 C56.579092,0 54.7822965,1.4354067 54.7822965,3.22966507 L52.9855011,22.9665072 C47.9544739,25.1196172 43.2828057,27.6315789 39.3298557,30.861244 L21.3619013,22.6076555 C19.5651059,21.8899522 17.4089514,22.6076555 16.6902332,24.0430622 L1.23779241,50.5980861 C0.15971515,52.3923445 0.878433326,54.5454545 2.31586968,55.6220096 L18.4870286,67.1052632 C18.1276696,69.6172249 17.7683105,72.1291866 17.7683105,75 C17.7683105,77.8708134 18.1276696,80.3827751 18.4870286,82.8947368 L1.5971515,94.3779904 C0.15971515,95.4545455 -0.559003026,97.6076555 0.519074238,99.4019139 L15.971515,125.956938 C17.0495923,127.751196 18.8463877,128.4689 20.6431832,127.392344 L38.6111376,119.138756 C42.9234466,122.368421 47.2357557,124.880383 52.2667829,127.033493 L54.0635784,146.770335 C54.4229374,148.564593 55.8603738,150 57.6571692,150 L88.5620508,150 C90.3588462,150 92.1556417,148.564593 92.1556417,146.770335 L93.9524371,127.033493 C98.9834644,124.880383 103.655132,122.368421 107.608082,119.138756 L125.576037,127.392344 C127.372832,128.110048 129.528987,127.392344 130.247705,125.956938 L145.700146,99.4019139 C146.778223,97.6076555 146.059505,95.4545455 144.622069,94.3779904 L129.528987,82.8947368 Z M73.4689691,110.885167 C53.7042193,110.885167 37.5330603,94.7368421 37.5330603,75 C37.5330603,55.2631579 53.7042193,39.1148325 73.4689691,39.1148325 C93.2337189,39.1148325 109.404878,55.2631579 109.404878,75 C109.404878,94.7368421 93.2337189,110.885167 73.4689691,110.885167 Z" id="Shape" fill="#44D1FD"></path>
                <path d="M72.2972973,31.7567568 C48.5135135,31.7567568 29.0540541,51.2162162 29.0540541,75 C29.0540541,98.7837838 48.5135135,118.243243 72.2972973,118.243243 C96.0810811,118.243243 115.540541,98.7837838 115.540541,75 C115.540541,51.2162162 96.0810811,31.7567568 72.2972973,31.7567568 Z M72.2972973,93.018018 C62.2072072,93.018018 54.2792793,85.0900901 54.2792793,75 C54.2792793,64.9099099 62.2072072,56.981982 72.2972973,56.981982 C82.3873874,56.981982 90.3153153,64.9099099 90.3153153,75 C90.3153153,85.0900901 82.3873874,93.018018 72.2972973,93.018018 Z" id="Shape" fill="#08589C"></path>
            </g>
        </g>
    </g>
</svg>